<?xml version="1.0" encoding="utf-8" ?>
<svg xmlns="http://www.w3.org/2000/svg" xmlns:xlink="http://www.w3.org/1999/xlink" width="1024" height="1024">
	<path fill="white" d="M0 0L1024 0L1024 1024L0 1024L0 0Z"/>
	<path fill="#013C58" d="M665.72 286.207C671.866 285.759 678.194 285.833 684.339 286.247C715.01 288.31 748.968 300.394 769.472 324.111C782.541 339.228 789.438 357.32 787.884 377.426C786.424 396.304 774.836 413.882 760.727 425.934C731.34 451.036 694.108 458.47 656.404 455.373C649.284 454.645 642.406 453.545 635.454 451.867C624.433 462.03 613.481 464.888 599.197 468.005C605.008 460.053 607.114 452.9 608.592 443.21Q605.446 441.748 602.407 440.075Q599.368 438.403 596.449 436.528Q593.53 434.653 590.745 432.585Q587.96 430.517 585.322 428.264C570.585 415.76 559.077 398.471 557.563 378.763C556.042 358.966 562.045 340.403 575.118 325.373C598.144 298.901 631.789 288.527 665.72 286.207Z"/>
	<path fill="white" d="M624.005 364.2C622.412 364.212 621.092 364.204 619.563 363.731C618.598 362.801 618.514 362.865 618.422 361.546C618.821 361.049 619.083 360.678 619.588 360.257C620.932 359.134 623.461 359.519 625.142 359.59C625.185 360.765 625.501 362.727 624.63 363.657C624.441 363.858 624.213 364.019 624.005 364.2Z"/>
	<path fill="white" d="M635.103 356.964C636.774 357.222 637.183 357.225 638.543 358.323C639.004 359.438 639.266 359.861 638.82 361.08C638.448 362.101 637.068 363.321 636.064 363.585C635.226 363.806 634.126 363.703 633.258 363.713L632.472 363.728C632.315 363.73 632.158 363.728 632.001 363.729C631.446 362.228 631.24 360.754 631.631 359.188C632.86 357.686 633.333 357.609 635.103 356.964Z"/>
	<path fill="white" d="M714.727 356.035C718.589 356.04 724.248 355.996 727.629 358.007C728.758 358.679 728.977 359.212 729.248 360.442C728.654 361.885 728.145 362.448 727.013 363.452C723.093 363.552 717.814 363.463 714.311 361.46C713.133 360.786 712.848 360.273 712.431 359.022C712.885 357.466 713.505 356.975 714.727 356.035Z"/>
	<path fill="white" d="M606.693 371.451C607.497 370.776 608.123 370.164 609.146 369.876C610.175 370.349 610.641 370.778 611.016 371.895C611.855 374.39 611.415 377.405 611.174 379.981C610.653 382.513 610.263 385.362 609.29 387.755C608.653 389.322 607.874 389.943 606.365 390.604C604.958 390.344 604.824 390.306 603.801 389.313C602.096 384.275 606.03 377.26 606.636 372.005C606.657 371.82 606.674 371.635 606.693 371.451Z"/>
	<path fill="white" d="M668.885 356.234C671.245 356.081 674.019 355.949 676.203 357.005C677.608 357.685 678.214 358.424 678.653 359.888C678.469 360.34 678.349 360.728 677.998 361.106C675.792 363.482 671.672 362.914 668.755 362.865C666.359 362.774 663.622 362.799 661.397 361.814C660.062 361.223 659.086 360.595 658.558 359.224C658.685 358.965 658.765 358.676 658.939 358.447C660.929 355.831 666.013 356.272 668.885 356.234Z"/>
	<path fill="white" d="M606.415 362.408C606.485 357.987 604.921 350.42 607.969 346.898C609.409 346.329 609.721 346.312 611.261 346.509C614.613 351.547 610.064 359.926 613.755 364.982C613.84 365.099 613.931 365.213 614.019 365.328C613.311 366.695 613.037 367.774 611.48 368.391C609.15 369.314 605.691 368.599 603.193 368.595C602.402 368.523 601.277 368.35 600.58 367.915C599.511 367.249 599.34 366.856 598.973 365.741C599.083 364.947 599.22 364.56 599.788 363.939C601.617 361.936 603.949 362.37 606.415 362.408Z"/>
	<path fill="white" d="M625.047 356.853C624.358 356.937 623.668 356.987 622.975 357.033C620.515 357.194 618.308 357.501 616.385 355.562C615.543 354.714 615.299 353.988 615.302 352.839C615.584 352.43 615.728 352.159 616.172 351.852C618.857 349.99 639.277 349.648 642.774 350.632C644.372 351.081 645.772 351.919 646.549 353.438C647.01 354.34 646.645 354.645 646.35 355.541C643.894 357.488 638.088 356.694 634.992 356.632C631.683 356.583 628.333 356.395 625.047 356.853Z"/>
	<path fill="white" d="M631.478 371.831C633.395 371.841 636.228 371.658 637.8 372.939C638.81 373.761 638.635 374.305 638.573 375.464C636.671 378.75 634.306 379.498 630.979 380.947C634.925 382.45 639.127 382.95 642.969 384.365C644.688 384.998 647.141 386.786 647.693 388.62C648.097 389.958 647.768 390.48 647.126 391.569C645.715 392.327 645.046 392.457 643.444 392.437C637.75 390.956 627.285 388.333 623.252 384.045C622.026 382.742 621.778 381.578 621.779 379.844C622.147 379.159 622.219 378.617 622.991 378.314C625.297 377.408 627.514 378.906 629.628 379.661L629.549 378.162L629.726 378.773C629.821 375.994 630.293 374.322 631.478 371.831Z"/>
	<path fill="white" d="M745.127 360.868C746.113 360.881 746.994 360.999 747.926 361.345C749.361 361.878 750.122 362.568 750.8 363.912C750.756 365.202 750.534 366.087 749.867 367.177C743.686 377.269 731.795 384.517 720.616 387.52C720.308 387.517 719.998 387.516 719.693 387.47C717.716 387.175 716.507 385.915 715.445 384.334C715.351 382.703 715.447 382.169 716.954 381.314C719.832 379.682 723.552 378.942 726.672 377.787C735.559 374.497 739.644 368.104 745.127 360.868Z"/>
	<path fill="white" d="M696.812 360.849C697.504 360.874 698.094 360.924 698.74 361.197C700.391 361.894 701.586 362.363 702.228 364.084C702.126 364.716 701.962 365.238 701.623 365.787C696.518 374.049 676.627 384.934 666.933 386.849C665.686 386.803 664.865 386.666 663.855 385.867C662.796 385.029 662.538 384.21 662.307 382.946C663.792 380.223 677.428 375.895 681.199 373.814C687.219 370.493 691.99 365.654 696.812 360.849Z"/>
	<path fill="white" d="M632.103 363.85C636.284 363.841 643.703 362.754 646.954 365.566C647.494 366.964 647.449 367.253 647.214 368.747C646.382 369.811 645.907 370.121 644.521 370.244C636.674 370.943 628.457 370.217 620.543 370.536C620.559 374.893 622.567 389.153 619.506 391.991C618.876 392.575 618.219 392.508 617.409 392.641C616.118 392.144 615.557 391.981 614.904 390.634C613.948 388.658 614.396 385.005 614.409 382.817C614.582 378.544 612.815 369.567 614.403 366.126C617.206 364.233 620.625 364.474 623.895 364.33C626.599 364.524 629.475 364.559 632.103 363.85Z"/>
	<path fill="#013C58" d="M492.367 310.706C496.434 309.973 505.899 309.4 509.35 311.273C510.586 311.943 511.071 312.55 511.422 313.916C513.343 321.393 503.481 347.615 499.791 354.449C490.512 371.636 478.138 380.587 459.696 386.036C468.583 387.315 476.575 390.219 484.492 394.423C509.52 407.711 528.284 431.887 539.272 457.62C542.71 465.671 545.251 474.007 547.816 482.365C549.19 482.818 550.683 483.286 551.957 483.975C554.103 485.137 556.651 487.341 557.239 489.812C558.358 494.517 554.494 500.4 552.268 504.327C552.926 517.452 554.906 530.557 555.756 543.688C558.983 593.532 554.615 640.696 527.794 684.054C515.935 703.225 499.985 720.517 480.955 732.632C476.754 735.307 471.275 738.879 466.13 738.857C461.284 738.837 456.092 736.356 451.471 734.908C441.202 731.69 432.318 730.854 421.928 734.249C418.174 735.476 414.394 737.167 410.527 737.983C401.361 739.919 393.281 733.2 386.105 728.42Q382.023 725.638 378.167 722.551Q374.311 719.464 370.703 716.091Q367.095 712.717 363.757 709.076Q360.418 705.436 357.369 701.55C322.367 657.001 311.871 599.427 315.795 543.994C316.692 531.333 319.308 519.239 320.763 506.707C318.099 500.903 311.356 492.659 311.115 486.619C311.039 484.71 311.584 482.909 312.991 481.573C316.325 478.407 321.951 479.029 326.156 479.038C330.111 463.065 337.955 446.467 347.306 432.954C361.896 411.871 381.865 395.062 406.57 387.406C412.615 385.533 418.902 384.448 425.116 383.301L427.877 378.812C426.362 367.15 419.664 350.893 410.575 342.945C407.692 340.424 403.06 337.812 401.145 334.532C400.416 333.282 400.287 332.195 400.682 330.809C401.113 329.299 402.059 327.834 403.552 327.195C404.791 326.665 406.048 326.873 407.254 327.357C417.06 331.291 427.887 348.002 431.578 357.504C434.461 348.113 436.923 339.963 443.319 332.245C455.308 317.778 474.348 312.392 492.367 310.706Z"/>
	<path fill="white" d="M350.779 496.707C354.745 496.676 358.884 496.906 362.782 497.648C362.859 497.816 362.929 497.986 363.012 498.15C364.075 500.253 367.682 497.952 369.969 498.912C372.253 499.871 380.987 517.028 382.206 520.353C382.877 522.185 383.412 523.854 382.542 525.698C381.108 526.527 380.506 526.369 378.88 526.337C373.417 525.725 354.371 526.024 351.05 523.567C346.702 520.352 344.459 513.312 343.72 508.11C343.209 504.511 343.081 501.124 345.325 498.104C346.965 496.98 348.857 496.939 350.779 496.707Z"/>
	<path fill="#013C58" d="M361.678 500.314L362.238 500.811C362.791 503.206 364.094 506.588 363.47 509.033C363.1 510.481 361.788 510.727 360.577 511.325C360.185 511.01 359.784 510.705 359.418 510.36C358.288 509.292 357.734 507.789 357.791 506.241C357.89 503.571 359.757 501.867 361.678 500.314Z"/>
	<path fill="white" d="M471.862 496.057C478.257 495.572 483.119 497.066 488.157 501.13C493.032 505.062 497.684 512.037 498.066 518.45C498.215 520.962 497.493 523.237 495.744 525.076C493.542 527.39 488.809 526.668 485.875 526.649C480.731 526.949 475.996 527.309 471.194 524.953C466.545 522.673 462.65 518.543 461.102 513.552C459.976 509.92 460.272 506.057 462.201 502.752C464.423 498.943 467.747 497.179 471.862 496.057Z"/>
	<path fill="#013C58" d="M473.766 503.283C475.06 503.316 476.058 503.394 477.193 504.083C478.504 504.878 479.475 506.532 479.69 508.006C480.052 510.481 479.241 512.23 477.737 514.126C476.53 514.296 475.446 514.422 474.307 513.853C473.185 513.291 472.432 512.154 472.132 510.96C471.436 508.187 472.339 505.628 473.766 503.283Z"/>
	<path fill="#3084A1" d="M498.78 319.723L499.985 319.762L500.503 320.72C500.144 330.241 492.09 349.392 486.385 357.221C474.775 373.151 458.612 376.889 440.138 379.79L439.089 379.696C438.587 379.005 438.437 378.934 438.319 378.035C438.039 375.903 438.555 373.395 438.815 371.263C440.139 360.385 443.061 348.242 450.204 339.619C462.145 325.202 481.08 321.345 498.78 319.723Z"/>
	<path fill="#F7D071" d="M336.564 479.072C345.943 448.609 363.189 421.217 391.35 404.86Q392.321 404.3 393.305 403.764Q394.289 403.228 395.286 402.717Q396.283 402.205 397.292 401.717Q398.301 401.229 399.321 400.766Q400.342 400.303 401.373 399.865Q402.404 399.427 403.446 399.014Q404.488 398.601 405.539 398.213Q406.591 397.825 407.651 397.463Q408.712 397.101 409.781 396.765Q410.85 396.429 411.926 396.118Q413.003 395.808 414.087 395.524Q415.171 395.24 416.262 394.982Q417.352 394.724 418.449 394.493Q419.545 394.262 420.647 394.057Q421.749 393.852 422.855 393.674Q423.961 393.496 425.072 393.345Q426.182 393.194 427.296 393.07Q428.41 392.946 429.526 392.849Q430.642 392.752 431.761 392.682Q432.879 392.612 433.999 392.569Q435.119 392.526 436.239 392.511Q437.36 392.495 438.48 392.506Q439.601 392.518 440.721 392.556Q441.841 392.595 442.959 392.66Q444.078 392.726 445.195 392.819Q446.312 392.912 447.426 393.031Q448.54 393.151 449.651 393.298Q450.762 393.445 451.869 393.618Q452.976 393.792 454.079 393.992Q455.181 394.193 456.279 394.42Q457.376 394.647 458.467 394.9Q459.559 395.154 460.644 395.434C485.46 402.066 507.046 419.409 519.842 441.562C519.56 441.466 519.274 441.38 518.995 441.274C514.18 439.436 503.528 428.977 498.174 425.325C470.305 406.317 435.542 401.634 403.944 414.075C375.235 425.378 355.101 449.989 342.954 477.645C342.599 478.452 342.72 478.157 342.432 479.025L336.564 479.072Z"/>
	<path fill="#F8BC1C" d="M342.432 479.025C342.72 478.157 342.599 478.452 342.954 477.645C355.101 449.989 375.235 425.378 403.944 414.075C435.542 401.634 470.305 406.317 498.174 425.325C503.528 428.977 514.18 439.436 518.995 441.274C519.274 441.38 519.56 441.466 519.842 441.562C528.294 453.034 533.646 468.678 537.8 482.264C521.342 479.069 505.118 479.052 488.431 479.015C481.673 479 474.35 478.513 467.713 479.901C465.028 480.462 462.516 481.462 460.239 483.006C457.129 485.114 455.039 487.986 452.91 491.005Q437.108 490.98 421.306 491.134C415.268 484.361 410.167 479.789 400.616 479.199C393.6 478.766 386.463 479.004 379.431 479.004L342.432 479.025Z"/>
	<path fill="#F8BC1C" d="M422.889 505.102Q435.231 504.637 447.575 505.059C449.99 510.576 451.003 516.631 453.605 522.123C459.054 533.626 469.655 542.488 481.596 546.66Q482.818 547.081 484.059 547.441Q485.3 547.802 486.558 548.1Q487.815 548.398 489.086 548.633Q490.357 548.869 491.638 549.041Q492.918 549.214 494.206 549.322Q495.494 549.431 496.786 549.476Q498.077 549.52 499.369 549.501Q500.662 549.482 501.951 549.398Q503.241 549.315 504.525 549.168Q505.809 549.021 507.084 548.81Q508.359 548.6 509.622 548.326Q510.885 548.053 512.133 547.717Q513.381 547.381 514.611 546.984Q515.841 546.587 517.05 546.129Q518.258 545.672 519.443 545.155Q520.628 544.638 521.785 544.063C533.061 538.589 539.467 530.72 543.591 519.047C549.171 559.323 550.175 603.915 536.431 642.736C526.167 671.73 509.531 698.199 485.358 717.52C479.428 722.26 473.199 726.741 466.32 729.997C459.485 728.436 452.968 725.381 446.106 723.668C431.354 721.065 420.303 724.445 406.52 729.402Q404.56 728.356 402.634 727.248Q400.708 726.14 398.819 724.97Q396.931 723.801 395.08 722.571Q393.23 721.341 391.421 720.052Q389.611 718.762 387.844 717.416Q386.077 716.069 384.354 714.666Q382.632 713.263 380.955 711.805Q379.278 710.347 377.65 708.836Q376.021 707.325 374.442 705.762Q372.863 704.199 371.335 702.586Q369.807 700.973 368.332 699.312Q366.857 697.65 365.436 695.942Q364.015 694.234 362.65 692.481Q361.286 690.728 359.978 688.932Q358.67 687.136 357.421 685.298Q356.172 683.461 354.983 681.584C331.285 644.863 324.206 600.832 325.012 557.847C325.251 545.102 325.687 532.21 328.383 519.712C335.42 530.814 342.119 544.106 355.051 549.121C366.579 553.591 380.056 552.584 391.241 547.574C410.786 538.82 415.893 523.617 422.889 505.102Z"/>
	<path fill="#013C58" d="M416.519 550.075C424.924 549.449 430.796 551.133 438.18 554.99C439.924 554.153 441.673 553.303 443.463 552.566C468.556 542.226 477.115 566.221 497.507 574.72C501.427 576.354 507.532 578.907 511.671 576.965C521.576 572.317 516.249 558.32 518.581 552.424L519.454 552.526L519.325 553.01L520.324 553.689C522.878 559.36 524.25 567.185 523.202 573.296C522.188 579.206 519.123 584.338 514.135 587.733C499.757 597.517 476.143 596.041 460.02 592.866C451.935 591.157 444.919 588.067 438.089 583.467C433.919 586.174 429.741 588.439 425.046 590.119C406.721 596.68 378.975 597.999 361.069 589.42C356.483 587.222 350.79 583.038 349.137 578.01C347.744 573.772 346.21 564.782 348.654 560.806C349.066 560.135 348.976 560.312 349.746 560.116C351.025 562.125 351.286 565.192 351.862 567.507C352.752 571.084 354.077 573.654 357.412 575.52C360.884 577.462 365.048 577.467 368.886 576.932C386.229 574.514 391.043 564.374 403.943 555.581C407.948 552.851 411.838 551.268 416.519 550.075Z"/>
</svg>
